<svg width="31" height="31" viewBox="0 0 31 31" fill="none" xmlns="http://www.w3.org/2000/svg">
<path d="M16.2684 27.0453L25.9482 17.2741C27.2039 15.9924 27.9051 14.2681 27.9001 12.4738C27.8952 10.6794 27.1846 8.95902 25.9218 7.68423C25.3024 7.05233 24.5634 6.54993 23.748 6.20624C22.9326 5.86256 22.057 5.68445 21.1721 5.68229C20.2872 5.68013 19.4107 5.85395 18.5936 6.19364C17.7765 6.53333 17.0351 7.03212 16.4126 7.66098L15.4888 8.59563L14.551 7.65013C13.9324 7.01907 13.1945 6.5173 12.3802 6.174C11.5659 5.8307 10.6915 5.65272 9.8078 5.65041C8.9241 5.64811 8.04876 5.82151 7.23269 6.16056C6.41662 6.4996 5.67609 6.99751 5.05418 7.62533C2.43778 10.2681 2.45018 14.5631 5.07898 17.2183L14.8083 27.0453C15.2113 27.4529 15.8654 27.4529 16.2684 27.0453ZM17.5146 8.75063C17.9931 8.26761 18.563 7.88465 19.191 7.62406C19.8189 7.36347 20.4925 7.23045 21.1724 7.23276C21.8523 7.23507 22.525 7.37265 23.1511 7.6375C23.7773 7.90236 24.3446 8.28918 24.8198 8.77543C25.7951 9.76021 26.3443 11.0889 26.3489 12.4749C26.3535 13.8608 25.8133 15.1931 24.8446 16.1844V16.1875L15.5384 25.5805L6.17948 16.1271C4.14433 14.0718 4.14278 10.7486 6.15623 8.71498C6.63413 8.23286 7.20316 7.85062 7.83019 7.59053C8.45723 7.33043 9.12974 7.19767 9.80858 7.19998C10.4874 7.20229 11.159 7.33962 11.7843 7.60397C12.4095 7.86832 12.9759 8.25442 13.4505 8.73978L14.9385 10.2433C15.0106 10.3162 15.0964 10.374 15.191 10.4135C15.2856 10.453 15.3871 10.4733 15.4896 10.4733C15.5921 10.4733 15.6935 10.453 15.7881 10.4135C15.8827 10.374 15.9685 10.3162 16.0406 10.2433L17.5146 8.75063Z" fill="#2D2D2D"/>
</svg>
