<svg width="29" height="29" viewBox="0 0 29 29" fill="none" xmlns="http://www.w3.org/2000/svg">
<g clip-path="url(#clip0_253_310)">
<path d="M20.1393 9.66762V7.29123C20.1393 6.55072 19.9935 5.81746 19.7101 5.13332C19.4267 4.44918 19.0114 3.82756 18.4877 3.30394C17.9641 2.78032 17.3425 2.36496 16.6583 2.08158C15.9742 1.7982 15.2409 1.65234 14.5004 1.65234C13.7599 1.65234 13.0267 1.7982 12.3425 2.08158C11.6584 2.36496 11.0368 2.78032 10.5131 3.30394C9.98952 3.82756 9.57416 4.44918 9.29078 5.13332C9.0074 5.81746 8.86155 6.55072 8.86155 7.29123V12.9301C8.86155 13.1438 8.94642 13.3487 9.09749 13.4997C9.24856 13.6508 9.45345 13.7357 9.6671 13.7357C9.88075 13.7357 10.0856 13.6508 10.2367 13.4997C10.3878 13.3487 10.4727 13.1438 10.4727 12.9301V11.2787L19.3338 11.2787L18.7642 9.66762H10.4727V7.29123C10.4727 6.223 10.897 5.19852 11.6524 4.44316C12.4077 3.68781 13.4322 3.26346 14.5004 3.26346C15.5687 3.26346 16.5931 3.68781 17.3485 4.44316C18.1039 5.19852 18.5282 6.223 18.5282 7.29123V12.8898C18.5282 13.1035 18.6131 13.3084 18.7642 13.4595C18.9152 13.6105 19.1201 13.6954 19.3338 13.6954C19.5474 13.6954 19.7523 13.6105 19.9034 13.4595C20.0545 13.3084 20.1393 13.1035 20.1393 12.8898V11.2787H24.1671V25.7787H4.83377V11.2787H9.09749V9.66762H3.22266V25.8512C3.22266 26.2593 3.38476 26.6507 3.6733 26.9392C3.96185 27.2277 4.3532 27.3898 4.76127 27.3898H24.2396C24.6477 27.3898 25.039 27.2277 25.3276 26.9392C25.6161 26.6507 25.7782 26.2593 25.7782 25.8512V9.66762H20.1393Z" fill="#2D2D2D"/>
</g>
<defs>
<clipPath id="clip0_253_310">
<rect width="29" height="29" fill="white"/>
</clipPath>
</defs>
</svg>
