<svg width="37" height="37" viewBox="0 0 37 37" fill="none" xmlns="http://www.w3.org/2000/svg">
<path d="M17.7285 21.584C24.1141 21.584 29.291 23.9998 29.291 26.9798V30.834H6.16602V26.9798C6.16602 23.9998 11.3429 21.584 17.7285 21.584ZM27.7493 26.9798C27.7493 24.8523 23.2631 23.1257 17.7285 23.1257C12.1939 23.1257 7.70768 24.8523 7.70768 26.9798V29.2923H27.7493V26.9798ZM17.7285 7.70898C19.1596 7.70898 20.532 8.27747 21.5439 9.28939C22.5559 10.3013 23.1243 11.6738 23.1243 13.1048C23.1243 14.5359 22.5559 15.9083 21.5439 16.9202C20.532 17.9322 19.1596 18.5007 17.7285 18.5007C16.2975 18.5007 14.925 17.9322 13.9131 16.9202C12.9012 15.9083 12.3327 14.5359 12.3327 13.1048C12.3327 11.6738 12.9012 10.3013 13.9131 9.28939C14.925 8.27747 16.2975 7.70898 17.7285 7.70898ZM17.7285 9.25065C16.7063 9.25065 15.726 9.65671 15.0032 10.3795C14.2804 11.1023 13.8743 12.0826 13.8743 13.1048C13.8743 14.127 14.2804 15.1073 15.0032 15.8301C15.726 16.5529 16.7063 16.959 17.7285 16.959C18.7507 16.959 19.731 16.5529 20.4538 15.8301C21.1766 15.1073 21.5827 14.127 21.5827 13.1048C21.5827 12.0826 21.1766 11.1023 20.4538 10.3795C19.731 9.65671 18.7507 9.25065 17.7285 9.25065Z" fill="#2D2D2D"/>
</svg>
