<svg width="10" height="19" viewBox="0 0 10 19" fill="none" xmlns="http://www.w3.org/2000/svg">
<path d="M1.7172 17.8029L9.4902 9.66123C9.62672 9.51822 9.70313 9.32642 9.70313 9.12672C9.70313 8.92702 9.62672 8.73522 9.4902 8.59221L1.7172 0.447428C1.6536 0.380739 1.57757 0.327734 1.49358 0.29154C1.4096 0.255348 1.31936 0.236702 1.2282 0.236702C1.13704 0.236702 1.0468 0.255348 0.962814 0.29154C0.878827 0.327734 0.802794 0.380739 0.7392 0.447428C0.608366 0.58419 0.53512 0.767786 0.53512 0.958965C0.53512 1.15014 0.608366 1.33374 0.7392 1.4705L8.0487 9.12672L0.7392 16.7814C0.608815 16.9181 0.535852 17.1014 0.535852 17.2922C0.535852 17.483 0.608815 17.6663 0.7392 17.8029C0.802794 17.8696 0.878827 17.9226 0.962814 17.9588C1.0468 17.995 1.13704 18.0137 1.2282 18.0137C1.31936 18.0137 1.4096 17.995 1.49358 17.9588C1.57757 17.9226 1.6536 17.8696 1.7172 17.8029Z" fill="white"/>
</svg>
