<svg width="15" height="17" viewBox="0 0 15 17" fill="none" xmlns="http://www.w3.org/2000/svg">
<path d="M11.1947 5.33342V3.77648C11.1947 3.29131 11.0991 2.8109 10.9134 2.36267C10.7278 1.91444 10.4556 1.50717 10.1126 1.16411C9.76952 0.821048 9.36225 0.548917 8.91402 0.363254C8.46579 0.177591 7.98538 0.0820313 7.50022 0.0820312C7.01506 0.0820313 6.53465 0.177591 6.08641 0.363254C5.63818 0.548917 5.23091 0.821048 4.88785 1.16411C4.54479 1.50717 4.27266 1.91444 4.087 2.36267C3.90133 2.8109 3.80577 3.29131 3.80577 3.77648V7.47092C3.80577 7.6109 3.86138 7.74514 3.96036 7.84412C4.05933 7.94309 4.19358 7.9987 4.33355 7.9987C4.47353 7.9987 4.60777 7.94309 4.70675 7.84412C4.80572 7.74514 4.86133 7.6109 4.86133 7.47092V6.38898L10.6669 6.38897L10.2937 5.33342H4.86133V3.77648C4.86133 3.0766 5.13935 2.40539 5.63424 1.9105C6.12913 1.41561 6.80034 1.13759 7.50022 1.13759C8.2001 1.13759 8.87131 1.41561 9.36619 1.9105C9.86108 2.40539 10.1391 3.0766 10.1391 3.77648V7.44453C10.1391 7.58451 10.1947 7.71875 10.2937 7.81773C10.3927 7.9167 10.5269 7.97231 10.6669 7.97231C10.8069 7.97231 10.9411 7.9167 11.0401 7.81773C11.1391 7.71875 11.1947 7.58451 11.1947 7.44453V6.38898H13.8336V15.889H1.16688V6.38898H3.96036V5.33342H0.111328V15.9365C0.111328 16.2038 0.217534 16.4602 0.406581 16.6493C0.595628 16.8383 0.852031 16.9445 1.11938 16.9445H13.8811C14.1484 16.9445 14.4048 16.8383 14.5939 16.6493C14.7829 16.4602 14.8891 16.2038 14.8891 15.9365V5.33342H11.1947Z" fill="#CECECE"/>
</svg>
